<svg xmlns="http://www.w3.org/2000/svg" xmlns:xlink="http://www.w3.org/1999/xlink" width="1928" height="78" viewBox="0 0 1928 78">
    <defs>
        <linearGradient id="vsk3nd4ahd" x1="99.412%" x2="2.297%" y1="49.412%" y2="49.412%">
            <stop offset="0%" stop-opacity="0"/>
            <stop offset="100%" stop-opacity=".16"/>
        </linearGradient>
        <linearGradient id="pgfosln3se" x1="2.297%" x2="99.412%" y1="49.412%" y2="49.412%">
            <stop offset="0%" stop-color="#FFF" stop-opacity="0"/>
            <stop offset="100%" stop-color="#FFF" stop-opacity=".16"/>
        </linearGradient>
        <filter id="pfni7g0beb" width="100.7%" height="120%" x="-.4%" y="-7.1%" filterUnits="objectBoundingBox">
            <feOffset dy="2" in="SourceAlpha" result="shadowOffsetOuter1"/>
            <feGaussianBlur in="shadowOffsetOuter1" result="shadowBlurOuter1" stdDeviation="2"/>
            <feColorMatrix in="shadowBlurOuter1" values="0 0 0 0 0 0 0 0 0 0 0 0 0 0 0 0 0 0 0.3 0"/>
        </filter>
        <path id="zcnqhjj59a" d="M0 0H1920V70H0z"/>
    </defs>
    <g fill="none" fill-rule="evenodd">
        <g transform="translate(4 2)">
            <mask id="9q8yz6t50c" fill="#fff">
                <use xlink:href="#zcnqhjj59a"/>
            </mask>
            <g>
                <use fill="#000" filter="url(#pfni7g0beb)" xlink:href="#zcnqhjj59a"/>
                <use fill="#0058D4" xlink:href="#zcnqhjj59a"/>
            </g>
            <g mask="url(#9q8yz6t50c)">
                <g>
                    <path stroke="#FFF" stroke-width="2" d="M934.265 292.408L1337.479 695.621" opacity=".299" transform="translate(161 -609) matrix(-1 0 0 1 2272.87 0)"/>
                    <path stroke="#FFF" stroke-width="2" d="M321.325 499.99L724.539 903.204" opacity=".299" transform="translate(161 -609) matrix(-1 0 0 1 1046.99 0)"/>
                    <path stroke="#FFF" stroke-width="2" d="M1.325 638.99L404.539 1042.204" opacity=".299" transform="translate(161 -609) matrix(-1 0 0 1 406.99 0)"/>
                    <path fill="url(#vsk3nd4ahd)" d="M711.463 661.975L1599.36 663.206 1599.846 1014.155 711.95 1012.924z" transform="translate(161 -609) scale(1 -1) rotate(44 3229.938 0)"/>
                    <path fill="url(#pgfosln3se)" d="M157.365 259.886L1045.262 261.117 1045.749 612.066 157.852 610.836z" transform="translate(161 -609) scale(1 -1) rotate(44 1680.637 0)"/>
                    <path fill="#FFC8A8" d="M1006.413 529.117L1290.523 528.443 1290.691 551.246 983.572 551.166z" opacity=".199" transform="translate(161 -609) scale(1 -1) rotate(44 2473.294 0)"/>
                </g>
            </g>
        </g>
    </g>
</svg>
