<svg width="20" height="20" viewBox="0 0 20 20" fill="none" xmlns="http://www.w3.org/2000/svg">
<path d="M19.6671 3.30992H4.4831L3.73209 1.07612C3.73209 1.07314 3.72875 1.07091 3.72742 1.06793C3.71705 1.04309 3.70407 1.01972 3.68875 0.998309C3.67969 0.980587 3.66944 0.963661 3.65808 0.947676C3.63574 0.923951 3.61048 0.903895 3.58308 0.888108C3.57429 0.880772 3.56516 0.873938 3.55575 0.867632C3.52666 0.854954 3.49616 0.846811 3.46508 0.843432C3.4541 0.840166 3.44297 0.837556 3.43175 0.835614C3.42775 0.835614 3.42441 0.833008 3.42041 0.833008H0.333341C0.244934 0.833008 0.160147 0.872232 0.0976333 0.942052C0.0351197 1.01187 0 1.10657 0 1.20531C0 1.30405 0.0351197 1.39875 0.0976333 1.46856C0.160147 1.53838 0.244934 1.57761 0.333341 1.57761H3.18874L3.93342 3.79578C3.93673 3.8102 3.94085 3.82438 3.94576 3.83822L6.41248 11.1673C6.0554 11.2938 5.75072 11.559 5.55368 11.9149C5.35663 12.2707 5.28028 12.6937 5.33845 13.107C5.39662 13.5203 5.58547 13.8967 5.87076 14.1678C6.15604 14.439 6.51888 14.587 6.89349 14.5851H16.6937C16.7821 14.5851 16.8669 14.5458 16.9294 14.476C16.9919 14.4062 17.0271 14.3115 17.0271 14.2128C17.0271 14.114 16.9919 14.0193 16.9294 13.9495C16.8669 13.8797 16.7821 13.8405 16.6937 13.8405H6.89349C6.6563 13.8384 6.42935 13.7323 6.26153 13.545C6.09371 13.3578 5.99847 13.1045 5.99633 12.8396C5.99419 12.5746 6.08532 12.3194 6.25008 12.1288C6.41484 11.9383 6.64004 11.8276 6.87716 11.8207H16.3204C16.3624 11.8197 16.4038 11.8097 16.4424 11.7913C16.448 11.789 16.4534 11.7862 16.4587 11.7831C16.4924 11.7661 16.5232 11.743 16.55 11.7146C16.5524 11.712 16.5554 11.7101 16.5577 11.7072C16.5833 11.6789 16.6046 11.646 16.6207 11.61L19.9671 3.84343C19.9915 3.78672 20.0026 3.72402 19.9995 3.66121C19.9963 3.59839 19.9789 3.5375 19.9489 3.48421C19.919 3.43093 19.8774 3.387 19.8281 3.35652C19.7789 3.32604 19.7235 3.31001 19.6671 3.30992ZM16.1114 11.0743H7.0945L4.73344 4.05453H19.1368L16.1114 11.0743Z" fill="black"/>
<path d="M10.1286 17.2109C10.1286 16.8241 10.0259 16.446 9.83346 16.1244C9.64106 15.8028 9.36758 15.5521 9.04762 15.4041C8.72766 15.2561 8.37558 15.2173 8.03592 15.2928C7.69625 15.3682 7.38424 15.5545 7.13935 15.828C6.89447 16.1015 6.7277 16.45 6.66013 16.8294C6.59257 17.2087 6.62724 17.602 6.75978 17.9593C6.89231 18.3167 7.11674 18.6221 7.4047 18.837C7.69266 19.0519 8.0312 19.1666 8.37753 19.1666C8.84177 19.166 9.28685 18.9598 9.61512 18.5931C9.94338 18.2265 10.128 17.7294 10.1286 17.2109ZM7.29517 17.2109C7.29517 16.9714 7.35877 16.7372 7.47794 16.538C7.5971 16.3388 7.76648 16.1836 7.96464 16.092C8.1628 16.0003 8.38084 15.9763 8.5912 16.0231C8.80155 16.0699 8.99476 16.1853 9.1464 16.3547C9.29804 16.5241 9.40129 16.7399 9.44309 16.9749C9.48489 17.2098 9.46337 17.4533 9.38125 17.6746C9.29912 17.8959 9.16009 18.085 8.98172 18.2181C8.80336 18.3511 8.59367 18.4221 8.37919 18.422C8.09145 18.4221 7.81545 18.2946 7.61187 18.0675C7.40828 17.8404 7.29377 17.5323 7.2935 17.2109H7.29517Z" fill="black"/>
<path d="M17.2157 17.211C17.2156 16.8243 17.1129 16.4463 16.9205 16.1248C16.7281 15.8033 16.4546 15.5527 16.1347 15.4048C15.8148 15.2568 15.4628 15.2182 15.1233 15.2936C14.7837 15.3691 14.4718 15.5554 14.2269 15.8289C13.9821 16.1023 13.8154 16.4507 13.7479 16.83C13.6804 17.2093 13.7151 17.6024 13.8476 17.9597C13.9801 18.317 14.2045 18.6223 14.4924 18.8372C14.7803 19.052 15.1188 19.1667 15.465 19.1667C15.9292 19.1661 16.3743 18.9598 16.7025 18.5932C17.0307 18.2265 17.2153 17.7294 17.2157 17.211ZM14.3823 17.211C14.3824 16.9715 14.446 16.7375 14.5652 16.5384C14.6843 16.3394 14.8536 16.1843 15.0517 16.0927C15.2498 16.0011 15.4678 15.9772 15.678 16.0239C15.8883 16.0707 16.0814 16.186 16.233 16.3554C16.3845 16.5247 16.4878 16.7404 16.5296 16.9753C16.5714 17.2101 16.5499 17.4535 16.4678 17.6748C16.3858 17.896 16.2468 18.085 16.0686 18.2181C15.8903 18.3511 15.6807 18.4221 15.4663 18.4221C15.1787 18.4221 14.9027 18.2945 14.6992 18.0674C14.4957 17.8403 14.3812 17.5323 14.381 17.211H14.3823Z" fill="black"/>
</svg>
