<svg width="16" height="16" viewBox="0 0 16 16" fill="none" xmlns="http://www.w3.org/2000/svg">
<path d="M10.1016 8.73516C11.5741 7.97183 12.5833 6.436 12.5833 4.66683C12.5833 2.14016 10.5275 0.0834961 7.99996 0.0834961C5.47246 0.0834961 3.41663 2.14016 3.41663 4.66683C3.41663 6.436 4.42579 7.97183 5.89829 8.73516C3.01579 9.63266 0.916626 12.326 0.916626 15.5002V15.9168H15.0833V15.5002C15.0833 12.326 12.9841 9.63266 10.1016 8.73516ZM4.24996 4.66683C4.24996 2.59933 5.93246 0.916829 7.99996 0.916829C10.0675 0.916829 11.75 2.59933 11.75 4.66683C11.75 6.73433 10.0675 8.41683 7.99996 8.41683C5.93246 8.41683 4.24996 6.73433 4.24996 4.66683ZM1.76413 15.0835C1.97913 11.831 4.69413 9.25016 7.99996 9.25016C11.3058 9.25016 14.0208 11.831 14.2358 15.0835H1.76413Z" fill="black"/>
</svg>
