<svg xmlns="http://www.w3.org/2000/svg" width="16" height="16" viewBox="0 0 16 16">
    <g fill="none" fill-rule="evenodd">
        <g>
            <g>
                <g>
                    <g>
                        <g>
                            <path d="M0 0H16V16H0z" transform="translate(-1334 -514) translate(1277 70) translate(45 254) translate(2 52) translate(10 138)"/>
                            <path fill="#FFF" fill-rule="nonzero" d="M13.778 3.556h-3.556v.888h3.556v9.334h-3.556v.889h4.445V4.444c0-.49-.398-.888-.89-.888zM8.836 1.333H2.72c-.52 0-.942.422-.942.943v12.39h8V2.277c0-.52-.422-.943-.942-.943zm.053 12.445H7.556v-1.334H4v1.334H2.667V2.276c0-.015.005-.028.015-.038.01-.01.024-.016.038-.016h6.116c.029 0 .053.024.053.054v11.502z" transform="translate(-1334 -514) translate(1277 70) translate(45 254) translate(2 52) translate(10 138)"/>
                            <path fill="#FFF" fill-rule="nonzero" d="M3.556 3.556L4.444 3.556 4.444 4.444 3.556 4.444zM5.333 3.556L6.222 3.556 6.222 4.444 5.333 4.444zM7.111 3.556L8 3.556 8 4.444 7.111 4.444zM3.556 5.778L4.444 5.778 4.444 6.667 3.556 6.667zM5.333 5.778L6.222 5.778 6.222 6.667 5.333 6.667zM7.111 5.778L8 5.778 8 6.667 7.111 6.667zM3.556 8L4.444 8 4.444 8.889 3.556 8.889zM5.333 8L6.222 8 6.222 8.889 5.333 8.889zM7.111 8L8 8 8 8.889 7.111 8.889zM3.556 10.222L4.444 10.222 4.444 11.111 3.556 11.111zM5.333 10.222L6.222 10.222 6.222 11.111 5.333 11.111zM7.111 10.222L8 10.222 8 11.111 7.111 11.111zM10.222 5.778L11.111 5.778 11.111 6.667 10.222 6.667zM12 5.778L12.889 5.778 12.889 6.667 12 6.667zM10.222 8L11.111 8 11.111 8.889 10.222 8.889zM12 8L12.889 8 12.889 8.889 12 8.889zM10.222 10.222L11.111 10.222 11.111 11.111 10.222 11.111zM12 10.222L12.889 10.222 12.889 11.111 12 11.111z" transform="translate(-1334 -514) translate(1277 70) translate(45 254) translate(2 52) translate(10 138)"/>
                        </g>
                    </g>
                </g>
            </g>
        </g>
    </g>
</svg>
