<svg xmlns="http://www.w3.org/2000/svg" width="14" height="14" viewBox="0 0 14 14">
    <g fill="none" fill-rule="evenodd">
        <g>
            <g>
                <g>
                    <g>
                        <g>
                            <g>
                                <path d="M0 0H14V14H0z" transform="translate(-1527 -515) translate(1277 70) translate(45 254) translate(2 52) translate(10 138) translate(193 1)"/>
                                <path fill="#FFF" fill-rule="nonzero" d="M13.557 12.671L12.6 9.8h-1.05l.583 2.8H1.867l.583-2.8H1.4l-.958 2.871C.2 13.402.63 14 1.4 14h11.2c.77 0 1.2-.598.957-1.329zM10.5 3.5C10.5 1.567 8.933 0 7 0S3.5 1.567 3.5 3.5c0 3.343 3.5 7 3.5 7s3.5-3.657 3.5-7zm-5.39.042c0-1.044.846-1.89 1.89-1.89s1.89.847 1.89 1.89c0 1.044-.846 1.89-1.89 1.89s-1.89-.846-1.89-1.89z" transform="translate(-1527 -515) translate(1277 70) translate(45 254) translate(2 52) translate(10 138) translate(193 1)"/>
                            </g>
                        </g>
                    </g>
                </g>
            </g>
        </g>
    </g>
</svg>
