<svg xmlns="http://www.w3.org/2000/svg" width="15" height="15" viewBox="0 0 15 15">
    <g fill="none" fill-rule="evenodd">
        <g>
            <g>
                <g>
                    <g>
                        <g>
                            <g>
                                <path d="M0 0H15V15H0z" transform="translate(-1425 -515) translate(1277 70) translate(45 254) translate(2 52) translate(10 138) translate(91 1)"/>
                                <path fill="#FFF" fill-rule="nonzero" d="M13.125 6.875c0 3.469-2.4 6.713-5.625 7.5-3.225-.787-5.625-4.031-5.625-7.5v-3.75L7.5.625l5.625 2.5v3.75M7.5 13.125c2.344-.625 4.375-3.412 4.375-6.112V3.938L7.5 1.988l-4.375 1.95v3.075c0 2.7 2.031 5.487 4.375 6.112m0-9.375c1.036 0 1.875.84 1.875 1.875 0 .819-.519 1.513-1.25 1.769V8.75h1.25V10h-1.25v1.25h-1.25V7.394c-.75-.264-1.252-.973-1.25-1.769 0-1.036.84-1.875 1.875-1.875M7.5 5c-.345 0-.625.28-.625.625s.28.625.625.625.625-.28.625-.625S7.845 5 7.5 5z" transform="translate(-1425 -515) translate(1277 70) translate(45 254) translate(2 52) translate(10 138) translate(91 1)"/>
                            </g>
                        </g>
                    </g>
                </g>
            </g>
        </g>
    </g>
</svg>
