<svg xmlns="http://www.w3.org/2000/svg" xmlns:xlink="http://www.w3.org/1999/xlink" width="144" height="86" viewBox="0 0 144 86">
    <defs>
        <path id="l4osjiroia" d="M0 0H144V86H0z"/>
        <path id="vt5nsn2drd" d="M11.108-12c-3.907 0-7.072 3.2-7.072 7.111L4 64.081c0 2.455 1.242 4.622 3.129 5.903l64.87 10.236 64.83-10.236c1.89-1.28 3.132-3.448 3.132-5.902L140-4.888C139.997-8.8 136.796-12 132.889-12H11.109z"/>
        <linearGradient id="2qp4jef1te" x1="50%" x2="50%" y1="0%" y2="100%">
            <stop offset="0%" stop-color="#FFF"/>
            <stop offset="100%" stop-color="#D8D8D8"/>
        </linearGradient>
        <filter id="nwd6uc5w0c" width="103.7%" height="106.5%" x="-1.8%" y="-1.6%" filterUnits="objectBoundingBox">
            <feOffset dy="2" in="SourceAlpha" result="shadowOffsetOuter1"/>
            <feGaussianBlur in="shadowOffsetOuter1" result="shadowBlurOuter1" stdDeviation=".5"/>
            <feComposite in="shadowBlurOuter1" in2="SourceAlpha" operator="out" result="shadowBlurOuter1"/>
            <feColorMatrix in="shadowBlurOuter1" values="0 0 0 0 0 0 0 0 0 0 0 0 0 0 0 0 0 0 0.14489923 0"/>
        </filter>
    </defs>
    <g fill="none" fill-rule="evenodd">
        <g>
            <g transform="translate(-888) translate(888)">
                <mask id="58h1mrvhtb" fill="#fff">
                    <use xlink:href="#l4osjiroia"/>
                </mask>
                <g mask="url(#58h1mrvhtb)">
                    <use fill="#000" filter="url(#nwd6uc5w0c)" xlink:href="#vt5nsn2drd"/>
                    <path fill="url(#2qp4jef1te)" stroke="#FFF" stroke-linejoin="square" stroke-width="2" d="M132.889-11c1.679 0 3.205.689 4.312 1.796C138.31-8.096 139-6.569 139-4.889h0l-.04 68.97c0 2.034-.99 3.838-2.516 4.952h0L71.998 79.207 7.514 69.033C5.991 67.919 5 66.115 5 64.083h0L5.036-4.89c0-1.683.682-3.213 1.784-4.321C7.918-10.314 9.433-11 11.108-11h0z"/>
                </g>
            </g>
        </g>
    </g>
</svg>
